<svg xmlns="http://www.w3.org/2000/svg" xmlns:xlink="http://www.w3.org/1999/xlink" version="1.0" x="0px" y="0px" width="100px" height="100px" viewBox="0 0 100 100" enable-background="new 0 0 100 100" xml:space="preserve">
<g id="Captions">
</g>
<g id="Your_Icon">
	<path fill="#000000" d="M90.682,10.4H9.324C4.185,10.4,0,14.614,0,19.798v39.528c0,5.184,4.185,9.41,9.324,9.41h32.143   c-0.334,2.197-1.066,5.426-2.075,8.594c-1.906,5.986-3.544,7.861-4.061,8.112c-1.111,0.043-1.996,0.958-1.996,2.073   c0,1.158,0.934,2.085,2.079,2.085h25c1.156,0,2.085-0.928,2.085-2.085c0-1.115-0.881-2.03-1.994-2.073   c-0.517-0.25-2.155-2.126-4.061-8.112c-1.011-3.168-1.744-6.396-2.077-8.594h36.314c5.139,0,9.318-4.226,9.318-9.41V19.798   C100,14.614,95.821,10.4,90.682,10.4z M52.714,79.323c0.887,2.659,1.75,4.635,2.572,6.112H40.548   c0.824-1.477,1.689-3.453,2.576-6.112c1.186-3.569,2.175-7.733,2.545-10.588h4.498C50.537,71.59,51.522,75.755,52.714,79.323z    M95.835,59.326c0,2.889-2.315,5.239-5.153,5.239H9.324c-2.842,0-5.159-2.35-5.159-5.239V19.798c0-2.889,2.317-5.233,5.159-5.233   h81.358c2.838,0,5.153,2.344,5.153,5.233V59.326z"/>
	<rect x="25" y="18.764" fill="#000000" width="45.835" height="4.171"/>
	<rect x="25" y="27.1" fill="#000000" width="20.835" height="16.665"/>
	<rect x="25" y="47.935" fill="#000000" width="20.835" height="12.5"/>
	<rect x="50" y="27.1" fill="#000000" width="8.335" height="8.335"/>
	<rect x="62.5" y="27.1" fill="#000000" width="8.335" height="8.335"/>
	<rect x="62.5" y="39.6" fill="#000000" width="8.335" height="20.835"/>
	<rect x="50" y="39.585" fill="#000000" width="8.335" height="20.829"/>
</g>
</svg>