<svg xmlns="http://www.w3.org/2000/svg" xmlns:xlink="http://www.w3.org/1999/xlink" version="1.1" id="Layer_1" x="0px" y="0px" width="100px" height="100px" viewBox="0 0 100 100" enable-background="new 0 0 100 100" xml:space="preserve">
<g>
	<path d="M68.75,0H14.583v0.002c-3.111,0-5.796,1.731-7.227,4.265C3.225,4.757,0,8.24,0,12.5c0,2.5,1.129,4.722,2.879,6.25   C1.129,20.278,0,22.5,0,25s1.129,4.722,2.879,6.25C1.129,32.778,0,35,0,37.5s1.129,4.722,2.879,6.25C1.129,45.278,0,47.5,0,50   c0,2.5,1.129,4.722,2.879,6.25C1.129,57.778,0,60,0,62.5s1.129,4.722,2.879,6.25C1.129,70.278,0,72.5,0,75s1.129,4.722,2.879,6.25   C1.129,82.778,0,85,0,87.5c0,4.26,3.225,7.743,7.354,8.233C8.787,98.267,11.473,100,14.583,100H68.75v-0.002   c4.596,0,8.331-3.735,8.333-8.331l0,0V8.333C77.083,3.737,73.346,0,68.75,0z M6.25,78.587C5.011,77.864,4.167,76.534,4.167,75   s0.844-2.864,2.083-3.587V78.587z M6.25,66.087c-1.239-0.723-2.083-2.053-2.083-3.587s0.844-2.864,2.083-3.587V66.087z    M6.25,53.587C5.011,52.864,4.167,51.534,4.167,50s0.844-2.865,2.083-3.587V53.587z M6.25,41.087   c-1.239-0.722-2.083-2.053-2.083-3.587s0.844-2.865,2.083-3.587V41.087z M6.25,28.587C5.011,27.865,4.167,26.534,4.167,25   s0.844-2.865,2.083-3.587V28.587z M6.25,8.913v7.174c-1.239-0.722-2.083-2.053-2.083-3.587S5.011,9.635,6.25,8.913z M4.167,87.5   c0-1.534,0.844-2.864,2.083-3.587v7.174C5.011,90.364,4.167,89.034,4.167,87.5z M68.75,95.831v0.002H14.583   c-2.297,0-4.167-1.869-4.167-4.166v-7.754c1.239,0.723,2.083,2.053,2.083,3.587c0,1.151,0.932,2.083,2.083,2.083   c1.151,0,2.083-0.932,2.083-2.083c0-3.872-2.665-7.106-6.25-8.038v-8.049C11.656,72.136,12.5,73.466,12.5,75   c0,1.151,0.932,2.083,2.083,2.083c1.151,0,2.083-0.932,2.083-2.083c0-3.872-2.665-7.106-6.25-8.038v-8.049   c1.239,0.723,2.083,2.053,2.083,3.587c0,1.151,0.932,2.083,2.083,2.083c1.151,0,2.083-0.932,2.083-2.083   c0-3.872-2.665-7.106-6.25-8.038v-8.049C11.656,47.135,12.5,48.466,12.5,50c0,1.151,0.932,2.083,2.083,2.083   c1.151,0,2.083-0.932,2.083-2.083c0-3.872-2.665-7.106-6.25-8.038v-8.049c1.239,0.722,2.083,2.053,2.083,3.587   c0,1.151,0.932,2.083,2.083,2.083c1.151,0,2.083-0.932,2.083-2.083c0-3.872-2.665-7.106-6.25-8.038v-8.049   C11.656,22.135,12.5,23.466,12.5,25c0,1.151,0.932,2.083,2.083,2.083c1.151,0,2.083-0.932,2.083-2.083   c0-3.872-2.665-7.106-6.25-8.038V8.913C11.656,9.635,12.5,10.966,12.5,12.5c0,1.151,0.932,2.083,2.083,2.083   c1.151,0,2.083-0.932,2.083-2.083c0-3.263-1.902-6.063-4.639-7.43c0.708-0.555,1.589-0.901,2.556-0.901V4.167H68.75   c2.297,0,4.167,1.87,4.167,4.167v83.332C72.917,93.962,71.047,95.831,68.75,95.831z"/>
	<path d="M52.58,67.415c2.229-3.165,3.54-7.186,3.8-11.875c0.694-12.429-5.568-26.109-11.814-32.67   c-0.8-0.834-2.114-0.863-2.946-0.073c-0.834,0.793-0.867,2.112-0.073,2.946c5.723,6.01,11.279,18.713,10.675,29.565   c-0.24,4.315-1.446,7.788-3.556,10.393c-0.112-0.285-0.208-0.588-0.32-0.866c-0.506-1.26-0.984-2.448-1.141-3.645l-4.13,0.537   c0.222,1.724,0.826,3.219,1.408,4.663c0.468,1.162,0.909,2.259,1.084,3.337l0.271,1.654l1.672,0.089   c1.337,0.073,2.708,0.131,4.081,0.131c1.937,0,3.876-0.112,5.731-0.454l-0.753-4.098C55.304,67.281,53.955,67.383,52.58,67.415z"/>
	<path d="M23.436,25c0.179,0,0.36-0.022,0.539-0.071c1.446-0.386,2.691-1.458,3.79-2.405c0.09-0.077,0.175-0.148,0.263-0.224   c1.101,1.731,2.201,3.29,3.139,4.498c0.411,0.529,1.025,0.806,1.648,0.806c0.446,0,0.896-0.142,1.276-0.437   c0.909-0.706,1.074-2.014,0.368-2.924c-0.954-1.229-2.022-2.763-3.062-4.417c0.063-0.044,0.124-0.085,0.187-0.132   c1.813-1.322,3.689-2.688,5.455-3.464c1.052-0.464,1.53-1.693,1.066-2.747c-0.464-1.05-1.681-1.532-2.747-1.066   c-2.114,0.932-4.12,2.375-6.061,3.789c-0.71-1.337-1.349-2.673-1.831-3.931c-0.411-1.074-1.617-1.609-2.691-1.199   c-1.074,0.413-1.611,1.618-1.199,2.692c0.619,1.611,1.428,3.277,2.307,4.895c-0.272,0.224-0.553,0.46-0.836,0.704   c-0.684,0.59-1.622,1.397-2.146,1.538c-1.113,0.297-1.772,1.438-1.475,2.549C21.674,24.386,22.516,25,23.436,25z"/>
	<path d="M37.948,70.307c-0.352-0.031-0.714-0.195-1.176-0.403c-0.684-0.309-1.536-0.693-2.659-0.777   c-1.273-0.095-2.508,0.063-3.662,0.216l-0.657,0.084c-2.441,0.307-5.784,0.726-7.331,3.975c-2.236,4.704-2.614,11.504,1.839,15.314   c2.081,1.784,4.059,2.584,6.612,2.675c0.615,0.022,1.245,0.082,1.878,0.139c0.928,0.085,1.862,0.167,2.769,0.167h0.002   c1.935,0,4.743-0.319,6.779-3.074c2.712-3.672,3.227-9.475,1.218-13.794C42.985,73.586,41.783,71.006,37.948,70.307z    M38.989,86.145c-0.734,0.995-1.695,1.384-3.426,1.384c-0.785,0-1.591-0.077-2.393-0.148c-0.71-0.065-1.418-0.128-2.105-0.152   c-1.595-0.06-2.692-0.513-4.053-1.679c-2.637-2.256-2.373-7.021-0.786-10.357c0.527-1.109,1.895-1.355,4.085-1.632l0.686-0.088   c0.812-0.107,1.577-0.209,2.303-0.209c0.165,0,0.33,0.006,0.497,0.019c0.376,0.028,0.708,0.171,1.261,0.421   c0.653,0.293,1.467,0.661,2.325,0.729c1.316,0.244,1.787,0.834,2.399,2.152C41.142,79.507,40.792,83.706,38.989,86.145z"/>
</g>
<path d="M96.875,19.792c0-0.576-0.466-1.042-1.042-1.042c-0.575,0-1.041,0.466-1.041,1.042l-3.125,13.542v62.5  c0,2.302,1.865,4.167,4.166,4.167c2.302,0,4.167-1.865,4.167-4.167v-62.5L96.875,19.792z"/>
</svg>